<?xml version="1.0" encoding="UTF-8"?><svg id="Layer_1" xmlns="http://www.w3.org/2000/svg" viewBox="0 0 800 800"><path d="M409.44,685.42c-85.67,0-166.1-38.12-220.67-104.58-26.47-32.25-45.18-68.94-55.61-109.07-10.97-42.19-12.1-85.89-3.36-129.88,11.06-55.68,38.49-106.24,79.32-146.22,40.8-39.94,91.93-66.35,147.86-76.38,17.41-3.12,35.06-4.7,52.46-4.7,58.73,0,115.18,17.79,163.24,51.44,45.72,32.02,80.85,76.18,101.59,127.71l1.73,4.29h-40.19l-.84-1.82c-40.57-87.82-129.09-144.56-225.52-144.56-136.93,0-248.34,111.41-248.34,248.34s111.4,248.34,248.34,248.34c96.43,0,184.95-56.74,225.52-144.55l.84-1.82h40.19l-1.73,4.29c-20.74,51.53-55.87,95.69-101.59,127.71-48.06,33.65-104.5,51.44-163.24,51.44ZM327.58,533.1v-131.17h164.07v-35.26h-164.07v-103.23h184.18v-34.79h-217.49c-1.58,0-2.86,1.28-2.86,2.86v301.59h36.16ZM395.44,602.92v-131.16h164.08v-35.26h-197.72c-1.39,0-2.52,1.12-2.52,2.51v163.91h36.16ZM547.73,337.03c3.97,0,7.2-3.5,7.2-7.81v-28.33c0-4.3-3.23-7.81-7.2-7.81h-13.85c-3.97,0-7.2,3.5-7.2,7.81v28.33c0,4.3,3.23,7.81,7.2,7.81h13.85ZM490.25,337.03c3.97,0,7.2-3.5,7.2-7.81v-28.33c0-4.3-3.23-7.81-7.2-7.81h-13.85c-3.97,0-7.2,3.5-7.2,7.81v28.33c0,4.3,3.23,7.81,7.2,7.81h13.85ZM432.78,337.03c3.97,0,7.2-3.5,7.2-7.81v-28.33c0-4.3-3.23-7.81-7.2-7.81h-13.85c-3.97,0-7.2,3.5-7.2,7.81v28.33c0,4.3,3.23,7.81,7.2,7.81h13.85ZM375.3,337.03c3.97,0,7.2-3.5,7.2-7.81v-28.33c0-4.3-3.23-7.81-7.2-7.81h-13.85c-3.97,0-7.2,3.5-7.2,7.81v28.33c0,4.3,3.23,7.81,7.2,7.81h13.85Z" fill="#fff"/></svg>