<?xml version="1.0" encoding="UTF-8"?><svg id="Layer_1" xmlns="http://www.w3.org/2000/svg" viewBox="0 0 1178 461"><path d="M393.52,223.69v-113.18h41.48v17.94h-21.32v26.52h19.77v17.99h-19.77v52.31h-20.16v-1.59Z" fill="#65cf92"/><path d="M486.98,218.68c-4.19,5.23-10.84,7.85-19.94,7.85s-15.78-2.62-20.01-7.85c-4.14-5.15-6.21-13.04-6.21-23.65v-84.56h20.16v84.25c0,5.67.23,9.03.7,10.09.25.58.53,1.13.82,1.64.3.52.63,1.01.96,1.47.46.63,1.66.94,3.59.94s3.26-.51,4.02-1.52c.88-1.19,1.43-2.71,1.64-4.58.1-1.04.17-2.23.24-3.56.06-1.33.1-2.82.1-4.48v-84.25h20.16v84.56c0,10.66-2.07,18.55-6.21,23.65Z" fill="#65cf92"/><path d="M509.23,223.69v-95.28h-13.08v-17.9h45.71v17.9h-12.55v96.87h-20.09v-1.59Z" fill="#65cf92"/><path d="M591.01,218.68c-4.19,5.23-10.84,7.85-19.94,7.85s-15.78-2.62-20.01-7.85c-4.14-5.15-6.21-13.04-6.21-23.65v-84.56h20.16v84.25c0,5.67.23,9.03.7,10.09.25.58.53,1.13.82,1.64.3.52.63,1.01.96,1.47.46.63,1.66.94,3.59.94s3.26-.51,4.02-1.52c.88-1.19,1.43-2.71,1.64-4.58.1-1.04.17-2.23.24-3.56.06-1.33.1-2.82.1-4.48v-84.25h20.16v84.56c0,10.66-2.07,18.55-6.21,23.65Z" fill="#65cf92"/><path d="M631.52,172.85l-3.81-.19v52.63h-20.16v-114.77h29.67c2.02,0,3.88.14,5.56.43,1.7.28,3.26.7,4.7,1.28,1.45.57,2.71,1.29,3.81,2.17.63.5,1.21,1.06,1.76,1.69.56.61,1.06,1.25,1.49,1.93.45.67.87,1.4,1.25,2.17.39.76.71,1.54.99,2.36.27.82.51,1.68.72,2.58.46,2.2.81,4.7,1.04,7.49.24,2.78.36,5.88.36,9.3,0,7.02-.76,12.39-2.29,16.11-1.1,2.75-2.87,4.9-5.32,6.45,2.46,1.49,4.27,3.97,5.44,7.42.8,2.46,1.4,6.05,1.78,10.77.39,4.71.58,10.69.58,17.97,0,3.29.01,6.33.05,9.13.05,2.79.08,5.1.12,6.91.05,1.82.1,3.29.17,4.41.06,1.13.12,1.81.17,2.05l.89,2.17h-20.3l-.43-.89c-.39-.75-.62-3.24-.7-7.47-.08-4.24-.12-11.98-.12-23.22v-10.02c0-2.28-.14-4.19-.43-5.73-.28-1.54-.62-2.61-1.04-3.2-.89-1.19-2.87-1.82-5.95-1.9ZM627.76,156.23h5.2c.39,0,.75-.01,1.08-.05.34-.05.63-.08.89-.12.25-.05.49-.12.72-.22.24-.11.43-.2.58-.29.14-.1.28-.2.41-.34.8-.72,1.37-2.1,1.71-4.12.16-1.09.3-2.53.41-4.34.11-1.79.17-3.88.17-6.26v-.7c0-5.78-.45-9.47-1.35-11.08-.71-1.31-2.59-1.98-5.64-1.98h-4.19v29.48Z" fill="#65cf92"/><path d="M668.98,223.69v-113.18h40.56v17.82h-20.4v29.29h19.39v17.51h-19.39v32.32h21.17v17.82h-41.33v-1.59Z" fill="#65cf92"/><path d="M393.52,349.15v-113.18h41.48v17.94h-21.32v26.52h19.77v17.99h-19.77v52.31h-20.16v-1.59Z" fill="#65cf92"/><path d="M442.08,349.15v-113.18h20.16v114.77h-20.16v-1.59Z" fill="#65cf92"/><path d="M473.85,349.15v-113.18h20.16v97.14h21.48v17.63h-41.64v-1.59Z" fill="#65cf92"/><path d="M519.5,349.15v-113.18h24.01l.26,1.28,14.19,73.29,13.39-73.22.24-1.35h24.16v114.77h-18.3v-43.19l.31-19.65-11.54,61.06-.26,1.28h-16.16l-.26-1.28-12.16-61.88.31,20.47v43.19h-18.18v-1.59Z" fill="#65cf92"/><path d="M674.67,343.38c-4.14,5.62-10.62,8.43-19.41,8.43s-15.37-2.97-19.75-8.94c-4.28-5.78-6.41-14.02-6.41-24.71v-48.63c0-17.29,4.65-28.16,13.95-32.59,3.42-1.6,7.54-2.41,12.36-2.41,8.29,0,14.54,2.67,18.76,8,4.24,5.32,6.36,13.07,6.36,23.24v16.93h-19.61v-15.85c0-1.86-.06-3.56-.17-5.11-.1-1.54-.25-2.85-.46-3.93-.21-1.07-.45-1.98-.7-2.7-.39-.96-.91-1.65-1.57-2.07-.64-.43-1.54-.65-2.67-.65-.77,0-1.43.11-1.98.31-.55.21-1.02.53-1.42.96-.4.42-.76.99-1.06,1.71-1.01,2.41-1.52,6.21-1.52,11.42v52.1c0,5.8.49,9.9,1.47,12.31.42,1.01.96,1.75,1.64,2.19.67.43,1.57.65,2.67.65.75,0,1.4-.08,1.93-.26.53-.19.98-.51,1.35-.96.39-.45.73-1.01,1.04-1.69.46-1.17.82-2.8,1.06-4.89.25-2.1.39-4.61.39-7.54v-17.56h19.85v17.37c0,11.13-2.04,19.41-6.09,24.86Z" fill="#65cf92"/><path d="M709.1,331.1c.39.96.93,1.68,1.64,2.14.72.47,1.72.7,2.99.7s2.26-.23,2.99-.7c.72-.46,1.26-1.2,1.64-2.22.9-2.46,1.35-6.8,1.35-13.05v-52c0-5.07-.47-8.72-1.4-10.96-.39-.93-.92-1.6-1.59-2.02-.67-.43-1.61-.65-2.79-.65s-2.14.23-2.87.67c-.71.45-1.29,1.14-1.76,2.07-.52,1.05-.91,2.49-1.18,4.34-.28,1.83-.41,4-.41,6.5v52.05c0,6.35.46,10.72,1.4,13.13ZM733.77,343.14c-2.12,2.88-4.85,5.03-8.19,6.48-3.34,1.46-7.25,2.19-11.73,2.19-9.12,0-15.84-2.91-20.16-8.74-4.18-5.67-6.26-14.1-6.26-25.29v-51.04c0-10.53,2.24-18.55,6.72-24.04,4.48-5.49,11.11-8.24,19.89-8.24s15.82,2.81,19.92,8.43c3.96,5.49,5.95,13.44,5.95,23.84v51.04c0,5.58-.51,10.48-1.52,14.72-1.01,4.23-2.55,7.77-4.62,10.65Z" fill="#65cf92"/><path d="M779.23,313.85l-5.71-42.92-5.27,42.92h10.98ZM744.47,348.7l15.92-111.56.19-1.35h25.17l.24,1.35,16.93,111.56.26,1.85h-19.1l-.19-1.4-2.46-18.52h-15.22l-2.22,18.52-.19,1.4h-19.58l.24-1.85Z" fill="#65cf92"/><path d="M808.83,348.97v-113.18h20.16v97.14h21.48v17.63h-41.64v-1.59Z" fill="#65cf92"/><path d="M855.1,348.97v-113.18h20.16v114.77h-20.16v-1.59Z" fill="#65cf92"/><path d="M892.58,348.97v-95.28h-13.08v-17.9h45.71v17.9h-12.55v96.87h-20.09v-1.59Z" fill="#65cf92"/><path d="M929.47,348.97v-113.18h20.16v114.77h-20.16v-1.59Z" fill="#65cf92"/><path d="M981.52,331.1c.39.96.93,1.68,1.64,2.14.72.47,1.72.7,2.99.7s2.26-.23,2.99-.7c.72-.46,1.26-1.2,1.64-2.22.9-2.46,1.35-6.8,1.35-13.05v-52c0-5.07-.47-8.72-1.4-10.96-.39-.93-.92-1.6-1.59-2.02-.67-.43-1.61-.65-2.79-.65s-2.14.23-2.87.67c-.71.45-1.29,1.14-1.76,2.07-.52,1.05-.91,2.49-1.18,4.34-.28,1.83-.41,4-.41,6.5v52.05c0,6.35.46,10.72,1.4,13.13ZM1006.18,343.14c-2.12,2.88-4.85,5.03-8.19,6.48-3.34,1.46-7.25,2.19-11.73,2.19-9.12,0-15.84-2.91-20.16-8.74-4.18-5.67-6.26-14.1-6.26-25.29v-51.04c0-10.53,2.24-18.55,6.72-24.04,4.48-5.49,11.11-8.24,19.89-8.24s15.82,2.81,19.92,8.43c3.96,5.49,5.95,13.44,5.95,23.84v51.04c0,5.58-.51,10.48-1.52,14.72-1.01,4.23-2.55,7.77-4.62,10.65Z" fill="#65cf92"/><path d="M1021.97,348.97v-113.18h16.04l.36,1.08,20.11,57.06-.77-20.04v-38.1h18.45v114.77h-14.76l-.39-1.08-20.86-59.54.63,19.03v41.6h-18.81v-1.59Z" fill="#65cf92"/><rect x="208.27" y="182.79" width="12.22" height="19.15" rx="2.02" ry="2.02" fill="#65cf92"/><rect x="234.18" y="182.79" width="12.22" height="19.15" rx="2.02" ry="2.02" fill="#65cf92"/><rect x="260.09" y="182.79" width="12.22" height="19.15" rx="2.02" ry="2.02" fill="#65cf92"/><rect x="286" y="182.79" width="12.22" height="19.15" rx="2.02" ry="2.02" fill="#65cf92"/><path d="M230.71,359.42c-38.7,0-75.03-17.22-99.67-47.24-24.6-29.96-34.31-69.3-26.64-107.93,10.12-50.95,51.36-91.36,102.62-100.54,7.86-1.41,15.83-2.12,23.7-2.12,26.53,0,52.03,8.03,73.73,23.24,20.65,14.47,36.52,34.41,45.88,57.69l.64,1.58h-17.64l-.31-.67c-18.4-39.84-58.57-65.58-102.31-65.58-62.12,0-112.66,50.54-112.66,112.67s50.54,112.66,112.66,112.66c43.75,0,83.91-25.74,102.32-65.58l.31-.67h17.64l-.64,1.58c-9.36,23.27-25.23,43.22-45.88,57.69-21.71,15.2-47.2,23.24-73.74,23.24Z" fill="#65cf92"/><path d="M177.56,290.48v-135.93c0-.74.6-1.34,1.34-1.34h97.86v15.22h-83.36v47.25h74.26v15.43h-74.26v59.37h-15.84Z" fill="#65cf92"/><path d="M208.27,322.08v-73.46c0-.74.6-1.34,1.34-1.34h88.77v15.43h-74.26v59.37h-15.84Z" fill="#65cf92"/></svg>