<?xml version="1.0" encoding="UTF-8"?><svg id="Layer_1" xmlns="http://www.w3.org/2000/svg" xmlns:xlink="http://www.w3.org/1999/xlink" viewBox="0 0 1178 461"><defs><linearGradient id="linear-gradient" x1="108.72" y1="353.81" x2="355.34" y2="107.19" gradientUnits="userSpaceOnUse"><stop offset="0" stop-color="#656fcc"/><stop offset="1" stop-color="#65cf92"/></linearGradient></defs><rect x="101.84" y="100.31" width="260.39" height="260.39" rx="23.49" ry="23.49" fill="url(#linear-gradient)"/><path d="M389.11,223.65v-113.91h41.74v18.06h-21.45v26.69h19.9v18.11h-19.9v52.65h-20.29v-1.6Z" fill="#111319"/><path d="M483.17,218.6c-4.22,5.27-10.91,7.9-20.07,7.9s-15.88-2.64-20.14-7.9c-4.17-5.19-6.25-13.12-6.25-23.8v-85.11h20.29v84.8c0,5.71.23,9.09.7,10.16.25.58.53,1.13.82,1.65.3.52.63,1.01.97,1.48.47.63,1.67.95,3.61.95s3.28-.51,4.05-1.53c.88-1.19,1.44-2.73,1.65-4.61.1-1.05.18-2.24.24-3.59.06-1.34.1-2.84.1-4.51v-84.8h20.29v85.11c0,10.73-2.08,18.67-6.25,23.8Z" fill="#111319"/><path d="M505.56,223.65v-95.9h-13.16v-18.01h46.01v18.01h-12.63v97.5h-20.22v-1.6Z" fill="#111319"/><path d="M587.87,218.6c-4.22,5.27-10.91,7.9-20.07,7.9s-15.88-2.64-20.14-7.9c-4.17-5.19-6.25-13.12-6.25-23.8v-85.11h20.29v84.8c0,5.71.23,9.09.7,10.16.25.58.53,1.13.82,1.65.3.52.63,1.01.97,1.48.47.63,1.67.95,3.61.95s3.28-.51,4.05-1.53c.88-1.19,1.44-2.73,1.65-4.61.1-1.05.18-2.24.24-3.59.06-1.34.1-2.84.1-4.51v-84.8h20.29v85.11c0,10.73-2.08,18.67-6.25,23.8Z" fill="#111319"/><path d="M628.64,172.47l-3.83-.19v52.97h-20.29v-115.51h29.87c2.04,0,3.9.15,5.6.44,1.71.28,3.28.7,4.73,1.28,1.45.57,2.73,1.3,3.83,2.18.63.5,1.22,1.07,1.77,1.7.56.62,1.07,1.26,1.5,1.94.45.68.87,1.41,1.26,2.18.39.76.72,1.55.99,2.38.27.82.52,1.69.73,2.59.47,2.22.81,4.73,1.04,7.54.24,2.8.36,5.91.36,9.36,0,7.07-.77,12.47-2.3,16.22-1.1,2.76-2.88,4.93-5.36,6.5,2.47,1.5,4.3,3.99,5.48,7.47.81,2.47,1.41,6.08,1.79,10.84.39,4.74.58,10.76.58,18.08,0,3.31.01,6.38.05,9.19.05,2.81.08,5.13.12,6.96.05,1.83.1,3.31.17,4.44.06,1.13.12,1.82.17,2.06l.9,2.18h-20.44l-.44-.9c-.39-.76-.62-3.26-.7-7.51-.08-4.27-.12-12.05-.12-23.37v-10.08c0-2.29-.15-4.22-.44-5.77-.28-1.55-.62-2.62-1.04-3.22-.89-1.19-2.88-1.83-5.99-1.92ZM624.86,155.75h5.24c.39,0,.75-.01,1.09-.05.34-.05.64-.08.9-.12.25-.05.5-.12.73-.22.24-.11.44-.21.58-.29.15-.1.28-.21.41-.34.81-.73,1.38-2.11,1.72-4.15.16-1.1.3-2.55.41-4.36.11-1.81.17-3.91.17-6.3v-.7c0-5.82-.45-9.53-1.36-11.15-.72-1.32-2.61-1.99-5.67-1.99h-4.22v29.67Z" fill="#111319"/><path d="M666.35,223.65v-113.91h40.82v17.94h-20.53v29.48h19.51v17.62h-19.51v32.53h21.31v17.94h-41.6v-1.6Z" fill="#111319"/><path d="M389.11,349.92v-113.91h41.74v18.06h-21.45v26.69h19.9v18.11h-19.9v52.65h-20.29v-1.6Z" fill="#111319"/><path d="M437.98,349.92v-113.91h20.29v115.51h-20.29v-1.6Z" fill="#111319"/><path d="M469.96,349.92v-113.91h20.29v97.76h21.62v17.74h-41.91v-1.6Z" fill="#111319"/><path d="M515.9,349.92v-113.91h24.17l.27,1.28,14.28,73.77,13.48-73.69.24-1.36h24.31v115.51h-18.42v-43.46l.32-19.78-11.61,61.45-.27,1.28h-16.27l-.27-1.28-12.24-62.28.32,20.6v43.46h-18.3v-1.6Z" fill="#111319"/><path d="M672.08,344.11c-4.17,5.65-10.68,8.48-19.54,8.48s-15.47-2.99-19.88-8.99c-4.3-5.82-6.45-14.11-6.45-24.87v-48.94c0-17.41,4.68-28.34,14.04-32.8,3.44-1.61,7.59-2.42,12.44-2.42,8.34,0,14.63,2.68,18.88,8.05,4.27,5.35,6.4,13.15,6.4,23.39v17.04h-19.73v-15.95c0-1.87-.06-3.59-.17-5.14-.1-1.55-.25-2.87-.46-3.95-.21-1.08-.45-1.99-.7-2.72-.39-.97-.92-1.66-1.58-2.08-.65-.44-1.55-.65-2.69-.65-.78,0-1.44.11-1.99.32-.55.21-1.03.53-1.43.97-.41.42-.76.99-1.07,1.72-1.02,2.42-1.53,6.25-1.53,11.49v52.43c0,5.84.49,9.96,1.48,12.39.42,1.02.97,1.76,1.65,2.21.68.44,1.58.65,2.69.65.76,0,1.41-.08,1.94-.27.53-.19.98-.52,1.36-.97.39-.45.73-1.02,1.04-1.7.47-1.18.82-2.82,1.07-4.92.25-2.12.39-4.64.39-7.59v-17.67h19.97v17.48c0,11.2-2.05,19.54-6.13,25.02Z" fill="#111319"/><path d="M706.73,331.75c.39.97.93,1.69,1.65,2.16.73.47,1.73.7,3.01.7s2.28-.23,3.01-.7c.73-.47,1.27-1.21,1.65-2.23.9-2.47,1.36-6.85,1.36-13.14v-52.34c0-5.1-.47-8.78-1.41-11.03-.39-.93-.92-1.61-1.6-2.04-.68-.44-1.62-.65-2.81-.65s-2.16.23-2.88.68c-.72.45-1.3,1.15-1.77,2.08-.52,1.05-.92,2.51-1.19,4.36-.28,1.84-.41,4.02-.41,6.55v52.39c0,6.39.47,10.79,1.41,13.21ZM731.55,343.87c-2.13,2.9-4.88,5.07-8.24,6.52-3.36,1.47-7.3,2.21-11.81,2.21-9.18,0-15.94-2.93-20.29-8.8-4.21-5.7-6.3-14.19-6.3-25.45v-51.37c0-10.6,2.25-18.67,6.76-24.19,4.51-5.53,11.18-8.29,20.02-8.29s15.93,2.83,20.05,8.48c3.99,5.53,5.99,13.53,5.99,24v51.37c0,5.61-.51,10.54-1.53,14.81-1.02,4.25-2.57,7.82-4.65,10.71Z" fill="#111319"/><path d="M777.31,314.39l-5.75-43.2-5.31,43.2h11.05ZM742.33,349.47l16.02-112.28.19-1.36h25.33l.24,1.36,17.04,112.28.27,1.87h-19.22l-.19-1.41-2.47-18.64h-15.32l-2.23,18.64-.19,1.41h-19.71l.24-1.87Z" fill="#111319"/><path d="M807.1,349.74v-113.91h20.29v97.76h21.62v17.74h-41.91v-1.6Z" fill="#111319"/><path d="M853.67,349.74v-113.91h20.29v115.51h-20.29v-1.6Z" fill="#111319"/><path d="M891.39,349.74v-95.9h-13.16v-18.01h46.01v18.01h-12.63v97.5h-20.22v-1.6Z" fill="#111319"/><path d="M928.52,349.74v-113.91h20.29v115.51h-20.29v-1.6Z" fill="#111319"/><path d="M980.91,331.75c.39.97.93,1.69,1.65,2.16.73.47,1.73.7,3.01.7s2.28-.23,3.01-.7c.73-.47,1.27-1.21,1.65-2.23.9-2.47,1.36-6.85,1.36-13.14v-52.34c0-5.1-.47-8.78-1.41-11.03-.39-.93-.92-1.61-1.6-2.04-.68-.44-1.62-.65-2.81-.65s-2.16.23-2.88.68c-.72.45-1.3,1.15-1.77,2.08-.52,1.05-.92,2.51-1.19,4.36-.28,1.84-.41,4.02-.41,6.55v52.39c0,6.39.47,10.79,1.41,13.21ZM1005.73,343.87c-2.13,2.9-4.88,5.07-8.24,6.52-3.36,1.47-7.3,2.21-11.81,2.21-9.18,0-15.94-2.93-20.29-8.8-4.21-5.7-6.3-14.19-6.3-25.45v-51.37c0-10.6,2.25-18.67,6.76-24.19s11.18-8.29,20.02-8.29,15.93,2.83,20.05,8.48c3.99,5.53,5.99,13.53,5.99,24v51.37c0,5.61-.51,10.54-1.53,14.81-1.02,4.25-2.57,7.82-4.65,10.71Z" fill="#111319"/><path d="M1021.62,349.74v-113.91h16.14l.36,1.09,20.24,57.43-.78-20.17v-38.35h18.57v115.51h-14.86l-.39-1.09-20.99-59.92.63,19.15v41.86h-18.93v-1.6Z" fill="#111319"/><rect x="216.67" y="190.09" width="10.35" height="16.22" rx="1.71" ry="1.71" fill="#fff"/><rect x="238.62" y="190.09" width="10.35" height="16.22" rx="1.71" ry="1.71" fill="#fff"/><rect x="260.56" y="190.09" width="10.35" height="16.22" rx="1.71" ry="1.71" fill="#fff"/><rect x="282.51" y="190.09" width="10.35" height="16.22" rx="1.71" ry="1.71" fill="#fff"/><path d="M235.68,339.7c-32.78,0-63.55-14.58-84.43-40.01-20.84-25.38-29.06-58.7-22.56-91.42,8.57-43.16,43.5-77.38,86.92-85.16,6.66-1.19,13.41-1.8,20.07-1.8,22.47,0,44.07,6.81,62.45,19.68,17.49,12.25,30.93,29.15,38.87,48.86l.54,1.34h-14.94l-.26-.57c-15.59-33.74-49.61-55.55-86.66-55.55-52.62,0-95.43,42.81-95.43,95.43s42.81,95.43,95.43,95.43c37.05,0,71.07-21.8,86.66-55.55l.26-.57h14.94l-.54,1.34c-7.93,19.71-21.37,36.61-38.86,48.86-18.39,12.88-39.98,19.68-62.46,19.68Z" fill="#fff"/><polygon points="190.65 281.3 190.65 165.03 274.68 165.03 274.68 177.92 204.07 177.92 204.07 217.95 266.97 217.95 266.97 231.02 204.07 231.02 204.07 281.3 190.65 281.3" fill="#fff"/><polygon points="216.67 308.07 216.67 244.71 292.99 244.71 292.99 257.79 230.09 257.79 230.09 308.07 216.67 308.07" fill="#fff"/></svg>