<?xml version="1.0" encoding="UTF-8"?><svg id="Layer_1" xmlns="http://www.w3.org/2000/svg" xmlns:xlink="http://www.w3.org/1999/xlink" viewBox="0 0 1178 461"><defs><linearGradient id="linear-gradient" x1="140.03" y1="322.72" x2="324.47" y2="138.28" gradientUnits="userSpaceOnUse"><stop offset="0" stop-color="#656fcc"/><stop offset="1" stop-color="#65cf92"/></linearGradient></defs><rect x="101.84" y="100.08" width="260.83" height="260.83" rx="130.42" ry="130.42" fill="url(#linear-gradient)"/><path d="M387.93,223.64v-114.1h41.81v18.09h-21.49v26.74h19.94v18.14h-19.94v52.74h-20.32v-1.6Z" fill="#111319"/><path d="M482.15,218.58c-4.23,5.28-10.93,7.92-20.11,7.92s-15.91-2.64-20.18-7.92c-4.18-5.2-6.26-13.14-6.26-23.85v-85.26h20.32v84.94c0,5.72.23,9.11.7,10.17.25.58.53,1.14.83,1.65.3.52.63,1.01.97,1.48.47.63,1.68.95,3.62.95s3.29-.51,4.06-1.53c.89-1.2,1.44-2.73,1.65-4.61.1-1.05.18-2.25.24-3.59.06-1.34.1-2.85.1-4.52v-84.94h20.32v85.26c0,10.75-2.09,18.7-6.26,23.85Z" fill="#111319"/><path d="M504.58,223.64v-96.06h-13.19v-18.04h46.09v18.04h-12.65v97.67h-20.25v-1.6Z" fill="#111319"/><path d="M587.04,218.58c-4.23,5.28-10.93,7.92-20.11,7.92s-15.91-2.64-20.18-7.92c-4.18-5.2-6.26-13.14-6.26-23.85v-85.26h20.32v84.94c0,5.72.23,9.11.7,10.17.25.58.53,1.14.83,1.65.3.52.63,1.01.97,1.48.47.63,1.68.95,3.62.95s3.29-.51,4.06-1.53c.89-1.2,1.44-2.73,1.65-4.61.1-1.05.18-2.25.24-3.59.06-1.34.1-2.85.1-4.52v-84.94h20.32v85.26c0,10.75-2.09,18.7-6.26,23.85Z" fill="#111319"/><path d="M627.87,172.37l-3.84-.19v53.06h-20.32v-115.71h29.92c2.04,0,3.91.15,5.61.44,1.71.28,3.29.7,4.74,1.29,1.46.57,2.73,1.3,3.84,2.19.63.5,1.22,1.07,1.77,1.7.56.62,1.07,1.26,1.51,1.94.45.68.87,1.41,1.26,2.19.39.76.72,1.55,1,2.38.27.83.52,1.69.73,2.6.47,2.22.81,4.74,1.04,7.55.24,2.8.36,5.92.36,9.37,0,7.08-.77,12.49-2.31,16.25-1.1,2.77-2.89,4.94-5.37,6.51,2.48,1.51,4.3,4,5.49,7.48.81,2.48,1.41,6.09,1.8,10.85.39,4.75.58,10.78.58,18.11,0,3.32.01,6.39.05,9.2.05,2.82.08,5.14.12,6.97.05,1.83.1,3.31.17,4.44.06,1.14.12,1.82.17,2.06l.9,2.19h-20.47l-.44-.9c-.39-.76-.63-3.27-.7-7.53-.08-4.27-.12-12.07-.12-23.41v-10.1c0-2.29-.15-4.23-.44-5.78-.28-1.55-.63-2.63-1.04-3.23-.89-1.2-2.89-1.83-6-1.92ZM624.09,155.62h5.25c.39,0,.75-.01,1.09-.05.34-.05.64-.08.9-.12.25-.05.5-.12.73-.22.24-.11.44-.21.58-.29.15-.1.28-.21.41-.34.81-.73,1.38-2.11,1.72-4.15.16-1.1.3-2.56.41-4.37.11-1.81.17-3.92.17-6.31v-.7c0-5.83-.46-9.55-1.36-11.17-.72-1.32-2.61-1.99-5.68-1.99h-4.23v29.72Z" fill="#111319"/><path d="M665.65,223.64v-114.1h40.89v17.97h-20.57v29.53h19.55v17.65h-19.55v32.59h21.34v17.97h-41.67v-1.6Z" fill="#111319"/><path d="M387.93,350.12v-114.1h41.81v18.09h-21.49v26.74h19.94v18.14h-19.94v52.74h-20.32v-1.6Z" fill="#111319"/><path d="M436.89,350.12v-114.1h20.32v115.71h-20.32v-1.6Z" fill="#111319"/><path d="M468.92,350.12v-114.1h20.32v97.93h21.66v17.77h-41.98v-1.6Z" fill="#111319"/><path d="M514.94,350.12v-114.1h24.21l.27,1.29,14.3,73.89,13.5-73.82.24-1.36h24.36v115.71h-18.45v-43.54l.32-19.81-11.63,61.56-.27,1.29h-16.29l-.27-1.29-12.26-62.38.32,20.64v43.54h-18.33v-1.6Z" fill="#111319"/><path d="M671.38,344.31c-4.18,5.66-10.7,8.5-19.57,8.5s-15.49-3-19.91-9.01c-4.31-5.83-6.46-14.13-6.46-24.91v-49.03c0-17.44,4.69-28.39,14.06-32.85,3.45-1.61,7.6-2.43,12.46-2.43,8.35,0,14.65,2.69,18.92,8.06,4.27,5.36,6.41,13.17,6.41,23.43v17.07h-19.77v-15.98c0-1.88-.06-3.59-.17-5.15-.1-1.55-.25-2.87-.46-3.96-.21-1.08-.45-1.99-.7-2.72-.39-.97-.92-1.66-1.58-2.09-.65-.44-1.55-.66-2.7-.66-.78,0-1.44.11-1.99.32-.55.21-1.03.53-1.43.97-.41.42-.76,1-1.07,1.72-1.02,2.43-1.53,6.26-1.53,11.51v52.52c0,5.85.49,9.98,1.48,12.41.42,1.02.97,1.76,1.65,2.21.68.44,1.58.66,2.7.66.76,0,1.41-.08,1.94-.27.53-.19.98-.52,1.36-.97.39-.45.73-1.02,1.04-1.7.47-1.18.83-2.82,1.07-4.93.25-2.12.39-4.65.39-7.6v-17.7h20.01v17.51c0,11.22-2.05,19.57-6.14,25.06Z" fill="#111319"/><path d="M706.1,331.92c.39.97.93,1.69,1.65,2.16.73.47,1.73.7,3.01.7s2.28-.23,3.01-.7c.73-.47,1.27-1.21,1.65-2.23.9-2.48,1.36-6.86,1.36-13.16v-52.43c0-5.11-.47-8.8-1.41-11.05-.39-.93-.92-1.61-1.6-2.04-.68-.44-1.62-.66-2.82-.66s-2.16.23-2.89.68c-.72.46-1.31,1.15-1.77,2.09-.52,1.06-.92,2.51-1.19,4.37-.28,1.85-.41,4.03-.41,6.56v52.48c0,6.4.47,10.81,1.41,13.23ZM730.96,344.06c-2.14,2.9-4.89,5.08-8.26,6.53-3.37,1.47-7.31,2.21-11.83,2.21-9.2,0-15.97-2.94-20.32-8.81-4.21-5.71-6.31-14.21-6.31-25.5v-51.46c0-10.62,2.26-18.7,6.77-24.23,4.52-5.54,11.2-8.3,20.06-8.3s15.95,2.84,20.08,8.5c3.99,5.54,6,13.55,6,24.04v51.46c0,5.62-.51,10.56-1.53,14.84-1.02,4.26-2.57,7.84-4.66,10.73Z" fill="#111319"/><path d="M776.8,314.54l-5.76-43.27-5.32,43.27h11.07ZM741.76,349.67l16.05-112.48.19-1.36h25.38l.24,1.36,17.07,112.48.27,1.87h-19.26l-.19-1.41-2.48-18.67h-15.35l-2.23,18.67-.19,1.41h-19.74l.24-1.87Z" fill="#111319"/><path d="M806.64,349.94v-114.1h20.32v97.93h21.66v17.77h-41.98v-1.6Z" fill="#111319"/><path d="M853.29,349.94v-114.1h20.32v115.71h-20.32v-1.6Z" fill="#111319"/><path d="M891.08,349.94v-96.06h-13.19v-18.04h46.09v18.04h-12.65v97.67h-20.25v-1.6Z" fill="#111319"/><path d="M928.27,349.94v-114.1h20.32v115.71h-20.32v-1.6Z" fill="#111319"/><path d="M980.74,331.92c.39.97.93,1.69,1.65,2.16.73.47,1.73.7,3.01.7s2.28-.23,3.01-.7c.73-.47,1.27-1.21,1.65-2.23.9-2.48,1.36-6.86,1.36-13.16v-52.43c0-5.11-.47-8.8-1.41-11.05-.39-.93-.92-1.61-1.6-2.04-.68-.44-1.62-.66-2.82-.66s-2.16.23-2.89.68c-.72.46-1.31,1.15-1.77,2.09-.52,1.06-.92,2.51-1.19,4.37-.28,1.85-.41,4.03-.41,6.56v52.48c0,6.4.47,10.81,1.41,13.23ZM1005.61,344.06c-2.14,2.9-4.89,5.08-8.26,6.53-3.37,1.47-7.31,2.21-11.83,2.21-9.2,0-15.97-2.94-20.32-8.81-4.21-5.71-6.31-14.21-6.31-25.5v-51.46c0-10.62,2.26-18.7,6.77-24.23,4.52-5.54,11.2-8.3,20.06-8.3s15.95,2.84,20.08,8.5c3.99,5.54,6,13.55,6,24.04v51.46c0,5.62-.51,10.56-1.53,14.84-1.02,4.26-2.57,7.84-4.66,10.73Z" fill="#111319"/><path d="M1021.53,349.94v-114.1h16.17l.36,1.09,20.28,57.53-.78-20.2v-38.42h18.6v115.71h-14.89l-.39-1.09-21.03-60.03.63,19.18v41.94h-18.96v-1.6Z" fill="#111319"/><rect x="214.34" y="192.17" width="9.82" height="15.39" rx="1.62" ry="1.62" fill="#fff"/><rect x="235.15" y="192.17" width="9.82" height="15.39" rx="1.62" ry="1.62" fill="#fff"/><rect x="255.97" y="192.17" width="9.82" height="15.39" rx="1.62" ry="1.62" fill="#fff"/><rect x="276.79" y="192.17" width="9.82" height="15.39" rx="1.62" ry="1.62" fill="#fff"/><path d="M232.37,334.08c-31.09,0-60.28-13.83-80.08-37.95-19.76-24.07-27.56-55.68-21.4-86.72,8.13-40.94,41.26-73.4,82.44-80.78,6.32-1.13,12.72-1.71,19.04-1.71,21.31,0,41.8,6.46,59.24,18.67,16.59,11.62,29.34,27.65,36.86,46.35l.52,1.27h-14.17l-.25-.54c-14.79-32.01-47.05-52.69-82.2-52.69-49.91,0-90.52,40.61-90.52,90.52s40.61,90.52,90.52,90.52c35.15,0,67.41-20.68,82.2-52.69l.25-.54h14.17l-.52,1.27c-7.52,18.7-20.27,34.72-36.86,46.35-17.44,12.21-37.93,18.67-59.24,18.67Z" fill="#fff"/><polygon points="189.66 278.69 189.66 168.4 269.36 168.4 269.36 180.63 202.39 180.63 202.39 218.59 262.05 218.59 262.05 230.99 202.39 230.99 202.39 278.69 189.66 278.69" fill="#fff"/><polygon points="214.34 304.08 214.34 243.98 286.73 243.98 286.73 256.38 227.07 256.38 227.07 304.08 214.34 304.08" fill="#fff"/></svg>