<?xml version="1.0" encoding="UTF-8"?><svg id="Layer_1" xmlns="http://www.w3.org/2000/svg" xmlns:xlink="http://www.w3.org/1999/xlink" viewBox="0 0 888 461"><defs><linearGradient id="linear-gradient" x1="147.85" y1="336.34" x2="359.52" y2="124.66" gradientUnits="userSpaceOnUse"><stop offset="0" stop-color="#656fcc"/><stop offset="1" stop-color="#65cf92"/></linearGradient></defs><rect x="104.01" y="80.83" width="299.35" height="299.35" rx="149.67" ry="149.67" fill="url(#linear-gradient)"/><path d="M428.27,174.42v-90.32h33.1v14.32h-17.01v21.16h15.78v14.36h-15.78v41.75h-16.09v-1.27Z" fill="#111319"/><path d="M502.85,170.42c-3.34,4.18-8.65,6.27-15.92,6.27s-12.59-2.09-15.97-6.27c-3.31-4.11-4.96-10.4-4.96-18.88v-67.49h16.09v67.24c0,4.53.18,7.21.56,8.05.2.46.42.9.65,1.31.24.41.5.8.77,1.17.37.5,1.33.75,2.86.75s2.6-.4,3.21-1.21c.7-.95,1.14-2.16,1.31-3.65.08-.83.14-1.78.19-2.84.05-1.06.08-2.25.08-3.58v-67.24h16.09v67.49c0,8.51-1.65,14.8-4.96,18.88Z" fill="#111319"/><path d="M520.61,174.42v-76.04h-10.44v-14.28h36.48v14.28h-10.01v77.31h-16.03v-1.27Z" fill="#111319"/><path d="M585.88,170.42c-3.34,4.18-8.65,6.27-15.92,6.27s-12.59-2.09-15.97-6.27c-3.31-4.11-4.96-10.4-4.96-18.88v-67.49h16.09v67.24c0,4.53.18,7.21.56,8.05.2.46.42.9.65,1.31.24.41.5.8.77,1.17.37.5,1.33.75,2.86.75s2.6-.4,3.21-1.21c.7-.95,1.14-2.16,1.31-3.65.08-.83.14-1.78.19-2.84.05-1.06.08-2.25.08-3.58v-67.24h16.09v67.49c0,8.51-1.65,14.8-4.96,18.88Z" fill="#111319"/><path d="M618.2,133.84l-3.04-.15v42h-16.09v-91.59h23.68c1.61,0,3.09.12,4.44.35,1.36.22,2.6.56,3.75,1.02,1.15.45,2.16,1.03,3.04,1.73.5.4.97.85,1.4,1.35.45.49.85,1,1.19,1.54.36.54.69,1.11,1,1.73.31.61.57,1.23.79,1.88.22.65.41,1.34.58,2.06.37,1.76.64,3.75.83,5.98.19,2.22.29,4.69.29,7.42,0,5.6-.61,9.89-1.83,12.86-.87,2.19-2.29,3.91-4.25,5.15,1.96,1.19,3.41,3.17,4.34,5.92.64,1.96,1.11,4.82,1.42,8.59.31,3.76.46,8.53.46,14.34,0,2.63,0,5.06.04,7.28.04,2.23.07,4.07.1,5.52.04,1.45.08,2.62.13,3.52.05.9.1,1.44.13,1.63l.71,1.73h-16.2l-.35-.71c-.31-.6-.49-2.59-.56-5.96-.07-3.38-.1-9.56-.1-18.53v-8c0-1.82-.12-3.34-.35-4.57-.22-1.23-.49-2.08-.83-2.56-.71-.95-2.29-1.45-4.75-1.52ZM615.2,120.58h4.15c.31,0,.6,0,.86-.04.27-.04.5-.07.71-.1.2-.04.39-.1.58-.17.19-.09.35-.16.46-.23.12-.08.22-.16.33-.27.64-.58,1.1-1.67,1.36-3.29.12-.87.24-2.02.33-3.46.09-1.43.13-3.1.13-5v-.56c0-4.61-.36-7.56-1.08-8.84-.57-1.05-2.07-1.58-4.5-1.58h-3.34v23.53Z" fill="#111319"/><path d="M648.1,174.42v-90.32h32.37v14.22h-16.28v23.37h15.47v13.97h-15.47v25.8h16.9v14.22h-32.98v-1.27Z" fill="#111319"/><path d="M428.27,274.55v-90.32h33.1v14.32h-17.01v21.16h15.78v14.36h-15.78v41.75h-16.09v-1.27Z" fill="#111319"/><path d="M467.02,274.55v-90.32h16.09v91.59h-16.09v-1.27Z" fill="#111319"/><path d="M492.38,274.55v-90.32h16.09v77.52h17.15v14.07h-33.23v-1.27Z" fill="#111319"/><path d="M528.8,274.55v-90.32h19.16l.21,1.02,11.32,58.49,10.69-58.43.19-1.08h19.28v91.59h-14.61v-34.46l.25-15.68-9.21,48.73-.21,1.02h-12.9l-.21-1.02-9.71-49.38.25,16.34v34.46h-14.51v-1.27Z" fill="#111319"/><path d="M463.58,370.21c-3.31,4.48-8.47,6.73-15.49,6.73s-12.26-2.37-15.76-7.13c-3.41-4.61-5.11-11.19-5.11-19.72v-38.81c0-13.8,3.71-22.47,11.13-26.01,2.73-1.28,6.02-1.92,9.86-1.92,6.61,0,11.6,2.13,14.97,6.38,3.38,4.24,5.07,10.43,5.07,18.55v13.51h-15.65v-12.65c0-1.48-.05-2.84-.13-4.07-.08-1.23-.2-2.27-.37-3.13-.17-.86-.36-1.58-.56-2.15-.31-.77-.73-1.32-1.25-1.65-.51-.35-1.23-.52-2.13-.52-.62,0-1.14.09-1.58.25-.44.17-.82.42-1.13.77-.32.34-.61.79-.85,1.36-.81,1.92-1.21,4.96-1.21,9.11v41.58c0,4.63.39,7.9,1.17,9.82.33.81.77,1.39,1.31,1.75.54.35,1.25.52,2.13.52.6,0,1.11-.07,1.54-.21.42-.15.78-.41,1.08-.77.31-.36.58-.81.83-1.35.37-.93.65-2.23.85-3.9.2-1.68.31-3.68.31-6.02v-14.01h15.84v13.86c0,8.88-1.62,15.49-4.86,19.84Z" fill="#111319"/><path d="M491.05,360.41c.31.77.74,1.34,1.31,1.71.58.37,1.37.56,2.38.56s1.81-.18,2.38-.56c.58-.37,1.01-.96,1.31-1.77.72-1.96,1.08-5.43,1.08-10.42v-41.5c0-4.05-.37-6.96-1.11-8.75-.31-.74-.73-1.28-1.27-1.61-.54-.35-1.28-.52-2.23-.52s-1.71.18-2.29.54c-.57.36-1.03.91-1.4,1.65-.41.84-.73,1.99-.94,3.46-.22,1.46-.33,3.19-.33,5.19v41.54c0,5.06.37,8.55,1.11,10.48ZM510.74,370.02c-1.69,2.3-3.87,4.02-6.54,5.17-2.67,1.16-5.79,1.75-9.36,1.75-7.28,0-12.64-2.33-16.09-6.98-3.33-4.52-5-11.25-5-20.18v-40.73c0-8.4,1.79-14.8,5.36-19.18,3.58-4.38,8.87-6.57,15.88-6.57s12.63,2.24,15.9,6.73c3.16,4.38,4.75,10.73,4.75,19.03v40.73c0,4.45-.4,8.36-1.21,11.74-.81,3.37-2.04,6.2-3.69,8.5Z" fill="#111319"/><path d="M547.02,346.65l-4.56-34.25-4.21,34.25h8.77ZM519.28,374.46l12.71-89.03.15-1.08h20.09l.19,1.08,13.51,89.03.21,1.48h-15.24l-.15-1.11-1.96-14.78h-12.15l-1.77,14.78-.15,1.11h-15.63l.19-1.48Z" fill="#111319"/><path d="M570.64,374.67v-90.32h16.09v77.52h17.15v14.07h-33.23v-1.27Z" fill="#111319"/><path d="M607.57,374.67v-90.32h16.09v91.59h-16.09v-1.27Z" fill="#111319"/><path d="M637.48,374.67v-76.04h-10.44v-14.28h36.48v14.28h-10.01v77.31h-16.03v-1.27Z" fill="#111319"/><path d="M666.92,374.67v-90.32h16.09v91.59h-16.09v-1.27Z" fill="#111319"/><path d="M708.46,360.41c.31.77.74,1.34,1.31,1.71.58.37,1.37.56,2.38.56s1.81-.18,2.38-.56c.58-.37,1.01-.96,1.31-1.77.72-1.96,1.08-5.43,1.08-10.42v-41.5c0-4.05-.37-6.96-1.11-8.75-.31-.74-.73-1.28-1.27-1.61-.54-.35-1.28-.52-2.23-.52s-1.71.18-2.29.54c-.57.36-1.03.91-1.4,1.65-.41.84-.73,1.99-.94,3.46-.22,1.46-.33,3.19-.33,5.19v41.54c0,5.06.37,8.55,1.11,10.48ZM728.14,370.02c-1.69,2.3-3.87,4.02-6.54,5.17-2.67,1.16-5.79,1.75-9.36,1.75-7.28,0-12.64-2.33-16.09-6.98-3.33-4.52-5-11.25-5-20.18v-40.73c0-8.4,1.79-14.8,5.36-19.18,3.58-4.38,8.87-6.57,15.88-6.57s12.63,2.24,15.9,6.73c3.16,4.38,4.75,10.73,4.75,19.03v40.73c0,4.45-.4,8.36-1.21,11.74-.81,3.37-2.04,6.2-3.69,8.5Z" fill="#111319"/><path d="M740.74,374.67v-90.32h12.8l.29.86,16.05,45.54-.62-15.99v-30.41h14.72v91.59h-11.78l-.31-.86-16.65-47.52.5,15.19v33.2h-15.01v-1.27Z" fill="#111319"/><path d="M256.61,352.56c-75.44,0-135.11-68.79-119.59-146.93,9.64-48.55,48.43-86.45,97.15-95.19,32.99-5.91,65.63,1.34,92.25,19.99,19.58,13.71,34.58,32.57,43.45,54.62h-14.51c-17.78-38.48-56.45-63.29-98.75-63.29-59.96,0-108.74,48.78-108.74,108.74s48.78,108.74,108.74,108.74c42.3,0,80.97-24.82,98.75-63.29h14.51c-8.87,22.05-23.87,40.91-43.45,54.62-20.55,14.39-44.69,22-69.81,22Z" fill="#fff"/><path d="M206.93,286.7v-128.21c0-.4.33-.73.73-.73h91.85v12.34h-79.64v47.34h70.95v12.54h-70.95v56.72h-12.93Z" fill="#fff"/><path d="M236.27,316.89v-68.53c0-.4.33-.73.73-.73h83.15v12.54h-70.95v56.72h-12.93Z" fill="#fff"/><path d="M307.69,200.42v-12.85c0-1.46,1.04-2.64,2.33-2.64h7.17c1.29,0,2.33,1.18,2.33,2.64v12.85c0,1.46-1.04,2.64-2.33,2.64h-7.17c-1.29,0-2.33-1.18-2.33-2.64Z" fill="#fff"/><path d="M282.48,200.42v-12.85c0-1.46,1.04-2.64,2.33-2.64h7.17c1.29,0,2.33,1.18,2.33,2.64v12.85c0,1.46-1.04,2.64-2.33,2.64h-7.17c-1.29,0-2.33-1.18-2.33-2.64Z" fill="#fff"/><path d="M257.28,200.42v-12.85c0-1.46,1.04-2.64,2.33-2.64h7.17c1.29,0,2.33,1.18,2.33,2.64v12.85c0,1.46-1.04,2.64-2.33,2.64h-7.17c-1.29,0-2.33-1.18-2.33-2.64Z" fill="#fff"/><path d="M232.07,200.42v-12.85c0-1.46,1.04-2.64,2.33-2.64h7.17c1.29,0,2.33,1.18,2.33,2.64v12.85c0,1.46-1.04,2.64-2.33,2.64h-7.17c-1.29,0-2.33-1.18-2.33-2.64Z" fill="#fff"/></svg>