<?xml version="1.0" encoding="UTF-8"?><svg id="Layer_1" xmlns="http://www.w3.org/2000/svg" viewBox="0 0 888 461"><path d="M255.83,382.32c-93.83,0-168.05-85.55-148.75-182.75,11.99-60.38,60.23-107.53,120.83-118.39,41.03-7.35,81.63,1.67,114.74,24.86,24.36,17.06,43.01,40.51,54.04,67.94h-18.05c-22.11-47.86-70.2-78.72-122.82-78.72-74.57,0-135.24,60.67-135.24,135.24s60.67,135.24,135.24,135.24c52.61,0,100.71-30.87,122.82-78.72h18.05c-11.04,27.42-29.68,50.88-54.04,67.94-25.56,17.9-55.59,27.36-86.83,27.36Z" fill="#111319"/><path d="M194.03,300.4v-159.46c0-.5.41-.91.91-.91h114.24v15.35h-99.06v58.88h88.24v15.6h-88.24v70.54h-16.09Z" fill="#111319"/><path d="M230.53,337.95v-85.24c0-.5.41-.91.91-.91h103.42v15.6h-88.24v70.54h-16.09Z" fill="#111319"/><path d="M430.26,174.74v-89.82h32.91v14.24h-16.92v21.04h15.69v14.28h-15.69v41.52h-16v-1.26Z" fill="#111319"/><path d="M504.43,170.76c-3.33,4.15-8.6,6.23-15.83,6.23s-12.52-2.08-15.88-6.23c-3.29-4.09-4.93-10.35-4.93-18.77v-67.11h16v66.86c0,4.5.18,7.17.55,8.01.2.46.42.89.65,1.3.24.41.5.8.76,1.17.37.5,1.32.75,2.85.75s2.59-.4,3.19-1.2c.7-.94,1.13-2.15,1.3-3.63.08-.83.14-1.77.19-2.83.05-1.06.08-2.24.08-3.56v-66.86h16v67.11c0,8.46-1.64,14.72-4.93,18.77Z" fill="#111319"/><path d="M522.09,174.74v-75.61h-10.38v-14.2h36.28v14.2h-9.96v76.88h-15.94v-1.26Z" fill="#111319"/><path d="M586.99,170.76c-3.33,4.15-8.6,6.23-15.83,6.23s-12.52-2.08-15.88-6.23c-3.29-4.09-4.93-10.35-4.93-18.77v-67.11h16v66.86c0,4.5.18,7.17.55,8.01.2.46.42.89.65,1.3.24.41.5.8.76,1.17.37.5,1.32.75,2.85.75s2.59-.4,3.19-1.2c.7-.94,1.13-2.15,1.3-3.63.08-.83.14-1.77.19-2.83.05-1.06.08-2.24.08-3.56v-66.86h16v67.11c0,8.46-1.64,14.72-4.93,18.77Z" fill="#111319"/><path d="M619.13,134.39l-3.02-.15v41.76h-16v-91.08h23.55c1.61,0,3.08.11,4.42.34,1.35.22,2.59.55,3.73,1.01,1.15.45,2.15,1.02,3.02,1.72.5.4.96.84,1.4,1.34.44.49.84.99,1.19,1.53.35.54.69,1.11.99,1.72.31.6.56,1.22.78,1.87.22.65.41,1.33.57,2.05.37,1.75.64,3.73.82,5.94.19,2.21.29,4.66.29,7.38,0,5.57-.61,9.83-1.82,12.79-.87,2.18-2.27,3.89-4.22,5.12,1.95,1.19,3.39,3.15,4.32,5.89.64,1.95,1.11,4.8,1.41,8.54.31,3.74.46,8.49.46,14.26,0,2.61,0,5.03.04,7.24.04,2.22.07,4.05.1,5.49.04,1.44.08,2.61.13,3.5.05.89.1,1.43.13,1.62l.71,1.72h-16.11l-.34-.71c-.31-.6-.49-2.57-.55-5.93-.07-3.36-.1-9.5-.1-18.43v-7.95c0-1.81-.11-3.33-.34-4.55-.22-1.22-.49-2.07-.82-2.54-.7-.94-2.27-1.44-4.72-1.51ZM616.15,121.2h4.13c.31,0,.59,0,.86-.04.27-.04.5-.07.71-.1.2-.04.39-.1.57-.17.19-.09.34-.16.46-.23.11-.08.22-.16.32-.27.64-.57,1.09-1.66,1.36-3.27.12-.86.23-2.01.32-3.44.09-1.42.13-3.08.13-4.97v-.55c0-4.59-.36-7.52-1.07-8.79-.56-1.04-2.05-1.57-4.47-1.57h-3.33v23.4Z" fill="#111319"/><path d="M648.86,174.74v-89.82h32.19v14.14h-16.19v23.24h15.39v13.9h-15.39v25.65h16.8v14.14h-32.8v-1.26Z" fill="#111319"/><path d="M430.26,274.3v-89.82h32.91v14.24h-16.92v21.04h15.69v14.28h-15.69v41.52h-16v-1.26Z" fill="#111319"/><path d="M468.8,274.3v-89.82h16v91.08h-16v-1.26Z" fill="#111319"/><path d="M494.01,274.3v-89.82h16v77.09h17.05v13.99h-33.05v-1.26Z" fill="#111319"/><path d="M530.23,274.3v-89.82h19.06l.21,1.01,11.26,58.16,10.63-58.11.19-1.07h19.17v91.08h-14.53v-34.27l.25-15.6-9.16,48.45-.21,1.01h-12.83l-.21-1.01-9.65-49.1.25,16.25v34.27h-14.43v-1.26Z" fill="#111319"/><path d="M465.37,369.43c-3.29,4.46-8.42,6.69-15.41,6.69s-12.19-2.36-15.67-7.09c-3.39-4.59-5.08-11.12-5.08-19.61v-38.59c0-13.72,3.69-22.34,11.07-25.86,2.71-1.27,5.98-1.91,9.81-1.91,6.58,0,11.54,2.12,14.89,6.35,3.36,4.22,5.05,10.37,5.05,18.44v13.44h-15.56v-12.58c0-1.48-.05-2.83-.13-4.05-.08-1.22-.2-2.26-.36-3.12-.17-.85-.35-1.57-.55-2.14-.31-.76-.72-1.31-1.24-1.64-.51-.34-1.22-.52-2.12-.52-.61,0-1.14.09-1.57.25-.43.17-.81.42-1.13.76-.32.33-.6.78-.84,1.36-.8,1.91-1.2,4.93-1.2,9.06v41.34c0,4.6.39,7.86,1.17,9.77.33.8.76,1.39,1.3,1.74.54.34,1.24.52,2.12.52.6,0,1.11-.07,1.53-.21.42-.15.77-.41,1.07-.76.31-.35.58-.8.82-1.34.37-.93.65-2.22.84-3.88.2-1.67.31-3.66.31-5.98v-13.93h15.75v13.78c0,8.83-1.62,15.41-4.84,19.73Z" fill="#111319"/><path d="M492.7,359.68c.31.76.74,1.33,1.3,1.7.57.37,1.36.55,2.37.55s1.8-.18,2.37-.55c.57-.37,1-.96,1.3-1.76.71-1.95,1.07-5.4,1.07-10.36v-41.27c0-4.02-.37-6.92-1.11-8.7-.31-.74-.73-1.27-1.26-1.61-.54-.34-1.28-.52-2.22-.52s-1.7.18-2.27.54c-.56.36-1.03.91-1.4,1.64-.41.83-.72,1.98-.94,3.44-.22,1.45-.32,3.17-.32,5.16v41.3c0,5.04.37,8.51,1.11,10.42ZM512.27,369.24c-1.68,2.28-3.85,3.99-6.5,5.14-2.65,1.16-5.75,1.74-9.31,1.74-7.24,0-12.57-2.31-16-6.94-3.32-4.5-4.97-11.19-4.97-20.07v-40.5c0-8.36,1.78-14.72,5.33-19.08,3.56-4.36,8.82-6.54,15.79-6.54s12.56,2.23,15.81,6.69c3.14,4.36,4.72,10.67,4.72,18.92v40.5c0,4.42-.4,8.31-1.2,11.68-.8,3.35-2.03,6.17-3.67,8.45Z" fill="#111319"/><path d="M548.35,345.99l-4.53-34.06-4.19,34.06h8.72ZM520.77,373.65l12.63-88.54.15-1.07h19.97l.19,1.07,13.44,88.54.21,1.47h-15.16l-.15-1.11-1.95-14.7h-12.08l-1.76,14.7-.15,1.11h-15.54l.19-1.47Z" fill="#111319"/><path d="M571.84,373.86v-89.82h16v77.09h17.05v13.99h-33.05v-1.26Z" fill="#111319"/><path d="M608.56,373.86v-89.82h16v91.08h-16v-1.26Z" fill="#111319"/><path d="M638.3,373.86v-75.61h-10.38v-14.2h36.28v14.2h-9.96v76.88h-15.94v-1.26Z" fill="#111319"/><path d="M667.57,373.86v-89.82h16v91.08h-16v-1.26Z" fill="#111319"/><path d="M708.88,359.68c.31.76.74,1.33,1.3,1.7.57.37,1.36.55,2.37.55s1.8-.18,2.37-.55c.57-.37,1-.96,1.3-1.76.71-1.95,1.07-5.4,1.07-10.36v-41.27c0-4.02-.37-6.92-1.11-8.7-.31-.74-.73-1.27-1.26-1.61-.54-.34-1.28-.52-2.22-.52s-1.7.18-2.27.54c-.56.36-1.03.91-1.4,1.64-.41.83-.72,1.98-.94,3.44-.22,1.45-.32,3.17-.32,5.16v41.3c0,5.04.37,8.51,1.11,10.42ZM728.45,369.24c-1.68,2.28-3.85,3.99-6.5,5.14-2.65,1.16-5.75,1.74-9.31,1.74-7.24,0-12.57-2.31-16-6.94-3.32-4.5-4.97-11.19-4.97-20.07v-40.5c0-8.36,1.78-14.72,5.33-19.08,3.56-4.36,8.82-6.54,15.79-6.54s12.56,2.23,15.81,6.69c3.14,4.36,4.72,10.67,4.72,18.92v40.5c0,4.42-.4,8.31-1.2,11.68-.8,3.35-2.03,6.17-3.67,8.45Z" fill="#111319"/><path d="M740.98,373.86v-89.82h12.73l.29.86,15.96,45.28-.61-15.9v-30.24h14.64v91.08h-11.72l-.31-.86-16.55-47.25.5,15.1v33.01h-14.93v-1.26Z" fill="#111319"/><path d="M319.35,193.09v-15.99c0-1.82,1.3-3.29,2.89-3.29h8.92c1.6,0,2.89,1.47,2.89,3.29v15.99c0,1.82-1.3,3.29-2.89,3.29h-8.92c-1.6,0-2.89-1.47-2.89-3.29Z" fill="#111319"/><path d="M288.01,193.09v-15.99c0-1.82,1.3-3.29,2.89-3.29h8.92c1.6,0,2.89,1.47,2.89,3.29v15.99c0,1.82-1.3,3.29-2.89,3.29h-8.92c-1.6,0-2.89-1.47-2.89-3.29Z" fill="#111319"/><path d="M256.66,193.09v-15.99c0-1.82,1.3-3.29,2.89-3.29h8.92c1.6,0,2.89,1.47,2.89,3.29v15.99c0,1.82-1.3,3.29-2.89,3.29h-8.92c-1.6,0-2.89-1.47-2.89-3.29Z" fill="#111319"/><path d="M225.31,193.09v-15.99c0-1.82,1.3-3.29,2.89-3.29h8.92c1.6,0,2.89,1.47,2.89,3.29v15.99c0,1.82-1.3,3.29-2.89,3.29h-8.92c-1.6,0-2.89-1.47-2.89-3.29Z" fill="#111319"/></svg>