<?xml version="1.0" encoding="UTF-8"?><svg id="Layer_1" xmlns="http://www.w3.org/2000/svg" viewBox="0 0 1178 461"><path d="M414.56,224.07v-100.2h34.39v13.26h-19.13v26.64h17.76v13.32h-17.76v46.97h-15.26Z" fill="#fff"/><path d="M478.67,225.21c-5.2,0-9.43-.98-12.7-2.93-3.26-1.95-5.66-4.91-7.17-8.88-1.52-3.97-2.28-8.99-2.28-15.06v-74.47h15.26v74.18c0,2.81.12,5.28.37,7.4.25,2.13.84,3.78,1.79,4.95.95,1.18,2.5,1.76,4.67,1.76s3.73-.58,4.7-1.74c.97-1.16,1.56-2.8,1.79-4.92.23-2.12.34-4.61.34-7.46v-74.18h15.26v74.47c0,6.07-.75,11.09-2.25,15.06-1.5,3.97-3.87,6.93-7.12,8.88-3.25,1.95-7.47,2.93-12.67,2.93Z" fill="#fff"/><path d="M517.84,224.07v-86.99h-11.73v-13.21h38.2v13.21h-11.27v86.99h-15.2Z" fill="#fff"/><path d="M571.93,225.21c-5.2,0-9.43-.98-12.7-2.93-3.26-1.95-5.66-4.91-7.17-8.88-1.52-3.97-2.28-8.99-2.28-15.06v-74.47h15.26v74.18c0,2.81.12,5.28.37,7.4.25,2.13.84,3.78,1.79,4.95.95,1.18,2.5,1.76,4.67,1.76s3.73-.58,4.7-1.74c.97-1.16,1.56-2.8,1.79-4.92.23-2.12.34-4.61.34-7.46v-74.18h15.26v74.47c0,6.07-.75,11.09-2.25,15.06-1.5,3.97-3.87,6.93-7.12,8.88-3.25,1.95-7.47,2.93-12.67,2.93Z" fill="#fff"/><path d="M605.86,224.07v-100.2h25.22c5.24,0,9.15,1.03,11.73,3.07,2.58,2.05,4.28,5.05,5.09,8.99.82,3.95,1.22,8.77,1.22,14.46s-.6,10.5-1.79,13.86c-1.2,3.36-3.63,5.61-7.32,6.75,1.75.3,3.21,1.02,4.38,2.13,1.18,1.12,2.12,2.75,2.85,4.9.72,2.14,1.24,4.9,1.57,8.26.32,3.36.48,7.47.48,12.33v3.19c0,1.75,0,3.81.03,6.18.02,2.37.05,4.74.08,7.09.04,2.35.09,4.37.17,6.03.07,1.67.17,2.66.28,2.96h-15.26c-.11-.19-.2-1.17-.26-2.93-.06-1.76-.11-4.01-.17-6.75-.06-2.73-.09-5.67-.11-8.82-.02-3.15-.03-6.25-.03-9.31v-8.11c0-3-.22-5.27-.65-6.8-.44-1.54-1.23-2.61-2.39-3.22-1.16-.61-2.82-.97-4.98-1.08l-4.9-.29v47.31h-15.26ZM621.17,164.92h6.09c1.86,0,3.27-.42,4.24-1.25.97-.83,1.63-2.37,1.99-4.61.36-2.24.54-5.47.54-9.68v-.63c0-3.53-.17-6.24-.51-8.14-.34-1.9-1.05-3.21-2.13-3.93-1.08-.72-2.76-1.08-5.04-1.08h-5.18v29.32Z" fill="#fff"/><path d="M659.95,224.07v-100.2h33.59v13.15h-18.33v29.15h17.42v12.87h-17.42v31.88h19.01v13.15h-34.27Z" fill="#fff"/><path d="M414.56,336v-100.2h34.39v13.26h-19.13v26.64h17.76v13.32h-17.76v46.97h-15.26Z" fill="#fff"/><path d="M457.6,336v-100.2h15.26v100.2h-15.26Z" fill="#fff"/><path d="M485.84,336v-100.2h15.26v87.22h19.3v12.98h-34.56Z" fill="#fff"/><path d="M526.33,336v-100.2h18.96l14.23,73.21,13.38-73.21h19.07v100.2h-13.61v-37.35l.57-34.27-13.49,71.16h-12.13l-14.06-71.16.57,34.27v37.35h-13.49Z" fill="#fff"/><path d="M648.07,337.13c-4.86,0-8.9-1.12-12.13-3.36-3.23-2.24-5.65-5.51-7.26-9.82-1.61-4.31-2.42-9.52-2.42-15.63v-43.67c0-4.59.38-8.73,1.14-12.41.76-3.68,1.99-6.83,3.7-9.45,1.71-2.62,3.98-4.63,6.83-6.03,2.85-1.4,6.36-2.11,10.53-2.11,3.8,0,7.03.62,9.71,1.85,2.68,1.23,4.86,3.01,6.55,5.32,1.69,2.32,2.92,5.12,3.7,8.4.78,3.28,1.17,6.97,1.17,11.07v13.78h-14.74v-12.81c0-4.93-.42-8.57-1.25-10.9s-2.5-3.5-5.01-3.5c-2.77,0-4.62,1.26-5.55,3.79-.93,2.52-1.39,6.04-1.39,10.56v46.8c0,3.49.2,6.35.6,8.57.4,2.22,1.07,3.85,2.02,4.9.95,1.04,2.28,1.57,3.98,1.57,2.58,0,4.33-1.21,5.24-3.64.91-2.43,1.37-6.28,1.37-11.56v-14.35h14.97v14.18c0,6.34-.74,11.62-2.22,15.86-1.48,4.23-3.83,7.39-7.03,9.48-3.21,2.09-7.37,3.13-12.5,3.13Z" fill="#fff"/><path d="M701.42,337.13c-5.2,0-9.44-1.1-12.72-3.3-3.28-2.2-5.7-5.47-7.26-9.79-1.56-4.33-2.33-9.68-2.33-16.05v-45.83c0-5.77.76-10.7,2.28-14.8,1.52-4.1,3.93-7.25,7.23-9.45,3.3-2.2,7.63-3.3,12.98-3.3,4.02,0,7.42.63,10.19,1.88,2.77,1.25,5.01,3.07,6.72,5.44,1.71,2.37,2.95,5.26,3.73,8.65.78,3.4,1.17,7.26,1.17,11.59v45.83c0,6.38-.75,11.73-2.25,16.05-1.5,4.33-3.86,7.59-7.09,9.79-3.23,2.2-7.44,3.3-12.64,3.3ZM701.42,323.92c1.9,0,3.32-.57,4.27-1.71.95-1.14,1.58-2.88,1.91-5.21.32-2.33.48-5.28.48-8.85v-46.68c0-4.36-.41-7.73-1.22-10.11-.82-2.37-2.57-3.56-5.27-3.56s-4.65,1.15-5.64,3.44c-.99,2.3-1.48,5.68-1.48,10.16v46.74c0,3.64.16,6.63.48,8.97.32,2.33.99,4.05,1.99,5.15,1.01,1.1,2.5,1.65,4.47,1.65Z" fill="#fff"/><path d="M728.98,335.99l14.29-100.2h20.15l15.2,100.2h-14.23l-2.39-17.88h-16.17l-2.16,17.88h-14.69ZM747.31,305.87h13.09l-6.72-50.33h-.23l-6.15,50.33Z" fill="#fff"/><path d="M785.34,335.99v-100.2h15.26v87.22h19.3v12.98h-34.56Z" fill="#fff"/><path d="M826.16,335.99v-100.2h15.26v100.2h-15.26Z" fill="#fff"/><path d="M859.64,335.99v-86.99h-11.73v-13.21h38.2v13.21h-11.27v86.99h-15.2Z" fill="#fff"/><path d="M892.66,335.99v-100.2h15.26v100.2h-15.26Z" fill="#fff"/><path d="M941.97,337.13c-5.2,0-9.44-1.1-12.72-3.3-3.28-2.2-5.7-5.47-7.26-9.79s-2.33-9.68-2.33-16.05v-45.83c0-5.77.76-10.7,2.28-14.8,1.52-4.1,3.93-7.25,7.23-9.45,3.3-2.2,7.63-3.3,12.98-3.3,4.02,0,7.42.63,10.19,1.88,2.77,1.25,5.01,3.07,6.72,5.44,1.71,2.37,2.95,5.26,3.73,8.65.78,3.4,1.17,7.26,1.17,11.59v45.83c0,6.38-.75,11.73-2.25,16.05-1.5,4.33-3.86,7.59-7.09,9.79-3.23,2.2-7.44,3.3-12.64,3.3ZM941.97,323.92c1.9,0,3.32-.57,4.27-1.71.95-1.14,1.58-2.88,1.91-5.21s.48-5.28.48-8.85v-46.68c0-4.36-.41-7.73-1.22-10.11-.82-2.37-2.57-3.56-5.27-3.56s-4.65,1.15-5.64,3.44c-.99,2.3-1.48,5.68-1.48,10.16v46.74c0,3.64.16,6.63.48,8.97.32,2.33.99,4.05,1.99,5.15,1.01,1.1,2.5,1.65,4.47,1.65Z" fill="#fff"/><path d="M975.45,335.99v-100.2h11.96l21.23,60.12-1.08-27.33v-32.79h13.72v100.2h-10.82l-21.8-62.23.85,26.3v35.92h-14.06Z" fill="#fff"/><path d="M249.22,191.67h13.34c.85,0,1.54.69,1.54,1.54v7.22c0,.85-.69,1.54-1.54,1.54h-13.34c-.85,0-1.54-.69-1.54-1.54v-7.22c0-.85.69-1.54,1.54-1.54Z" transform="translate(452.71 -59.07) rotate(90)" fill="#fff"/><path d="M272.1,191.67h13.34c.85,0,1.54.69,1.54,1.54v7.22c0,.85-.69,1.54-1.54,1.54h-13.34c-.85,0-1.54-.69-1.54-1.54v-7.22c0-.85.69-1.54,1.54-1.54Z" transform="translate(475.59 -81.96) rotate(90)" fill="#fff"/><path d="M294.99,191.67h13.34c.85,0,1.54.69,1.54,1.54v7.22c0,.85-.69,1.54-1.54,1.54h-13.34c-.85,0-1.54-.69-1.54-1.54v-7.22c0-.85.69-1.54,1.54-1.54Z" transform="translate(498.48 -104.84) rotate(90)" fill="#fff"/><path d="M317.87,191.67h13.34c.85,0,1.54.69,1.54,1.54v7.22c0,.85-.69,1.54-1.54,1.54h-13.34c-.85,0-1.54-.69-1.54-1.54v-7.22c0-.85.69-1.54,1.54-1.54Z" transform="translate(521.36 -127.73) rotate(90)" fill="#fff"/><path d="M270.32,344.13c-34.11,0-66.13-15.18-87.85-41.64-21.68-26.41-30.24-61.08-23.48-95.13,8.92-44.91,45.26-80.52,90.44-88.62,6.93-1.24,13.96-1.87,20.89-1.87,23.38,0,45.86,7.08,64.99,20.48,18.2,12.75,32.19,30.33,40.44,50.85l.43,1.05h-15.05l-.2-.45c-16.3-35.28-51.86-58.07-90.61-58.07-55.01,0-99.77,44.76-99.77,99.77s44.76,99.77,99.77,99.77c38.74,0,74.31-22.8,90.61-58.08l.2-.45h15.05l-.43,1.06c-8.25,20.51-22.24,38.1-40.44,50.84-19.13,13.4-41.61,20.48-64.99,20.48Z" fill="#fff"/><path d="M223.61,283.23v-119.82c0-.52.42-.94.94-.94h86.2v12.94h-73.64v42.24h65.6v13.13h-65.6v52.44h-13.5Z" fill="#fff"/><path d="M250.74,311.15v-64.64c0-.52.42-.93.94-.93h78.16v13.13h-65.6v52.44h-13.5Z" fill="#fff"/></svg>