<?xml version="1.0" encoding="UTF-8"?><svg id="Layer_1" xmlns="http://www.w3.org/2000/svg" viewBox="0 0 888 461"><path d="M432.14,175.12v-88.92h30.52v11.77h-16.98v23.65h15.76v11.82h-15.76v41.68h-13.54Z" fill="#111319"/><path d="M489.03,176.13c-4.62,0-8.37-.87-11.27-2.6-2.9-1.73-5.02-4.36-6.37-7.88-1.35-3.52-2.02-7.97-2.02-13.36v-66.08h13.54v65.83c0,2.49.11,4.68.33,6.57.22,1.89.75,3.35,1.59,4.4.84,1.04,2.22,1.57,4.14,1.57s3.31-.51,4.17-1.54c.86-1.03,1.39-2.48,1.59-4.37.2-1.89.3-4.09.3-6.62v-65.83h13.54v66.08c0,5.39-.67,9.84-2,13.36-1.33,3.52-3.44,6.15-6.32,7.88s-6.63,2.6-11.24,2.6Z" fill="#111319"/><path d="M523.79,175.12v-77.2h-10.41v-11.72h33.9v11.72h-10v77.2h-13.49Z" fill="#111319"/><path d="M571.79,176.13c-4.62,0-8.37-.87-11.27-2.6-2.9-1.73-5.02-4.36-6.37-7.88-1.35-3.52-2.02-7.97-2.02-13.36v-66.08h13.54v65.83c0,2.49.11,4.68.33,6.57.22,1.89.75,3.35,1.59,4.4.84,1.04,2.22,1.57,4.14,1.57s3.31-.51,4.17-1.54c.86-1.03,1.39-2.48,1.59-4.37.2-1.89.3-4.09.3-6.62v-65.83h13.54v66.08c0,5.39-.67,9.84-2,13.36-1.33,3.52-3.44,6.15-6.32,7.88s-6.63,2.6-11.24,2.6Z" fill="#111319"/><path d="M601.91,175.12v-88.92h22.38c4.65,0,8.12.91,10.41,2.73,2.29,1.82,3.8,4.48,4.52,7.98.72,3.5,1.09,7.78,1.09,12.83s-.53,9.32-1.59,12.3c-1.06,2.98-3.23,4.98-6.49,5.99,1.55.27,2.85.9,3.89,1.89,1.04.99,1.89,2.44,2.53,4.34.64,1.9,1.1,4.35,1.39,7.33s.43,6.63.43,10.94v2.83c0,1.55,0,3.38.03,5.48.02,2.11.04,4.2.08,6.29.03,2.09.08,3.87.15,5.36.07,1.48.15,2.36.25,2.63h-13.54c-.1-.17-.18-1.04-.23-2.6-.05-1.57-.1-3.56-.15-5.99-.05-2.43-.08-5.04-.1-7.83-.02-2.8-.03-5.55-.03-8.26v-7.2c0-2.66-.19-4.67-.58-6.04-.39-1.36-1.1-2.32-2.12-2.85-1.03-.54-2.5-.86-4.42-.96l-4.34-.25v41.99h-13.54ZM615.5,122.63h5.41c1.65,0,2.91-.37,3.76-1.11.86-.74,1.45-2.1,1.77-4.09.32-1.99.48-4.85.48-8.59v-.56c0-3.13-.15-5.54-.46-7.23-.3-1.68-.93-2.85-1.89-3.49-.96-.64-2.45-.96-4.47-.96h-4.6v26.02Z" fill="#111319"/><path d="M649.9,175.12v-88.92h29.81v11.67h-16.27v25.87h15.46v11.42h-15.46v28.29h16.87v11.67h-30.42Z" fill="#111319"/><path d="M432.14,274.46v-88.92h30.52v11.77h-16.98v23.65h15.76v11.82h-15.76v41.68h-13.54Z" fill="#111319"/><path d="M470.33,274.46v-88.92h13.54v88.92h-13.54Z" fill="#111319"/><path d="M495.4,274.46v-88.92h13.54v77.4h17.13v11.52h-30.67Z" fill="#111319"/><path d="M531.32,274.46v-88.92h16.82l12.63,64.97,11.87-64.97h16.93v88.92h-12.08v-33.14l.51-30.42-11.97,63.15h-10.76l-12.48-63.15.51,30.42v33.14h-11.97Z" fill="#111319"/><path d="M450.38,374.8c-4.31,0-7.9-.99-10.76-2.98-2.86-1.99-5.01-4.89-6.44-8.72-1.43-3.82-2.15-8.45-2.15-13.87v-38.75c0-4.08.34-7.75,1.01-11.01.67-3.27,1.77-6.06,3.28-8.39,1.52-2.32,3.54-4.11,6.06-5.36,2.53-1.25,5.64-1.87,9.35-1.87,3.37,0,6.24.55,8.61,1.64,2.38,1.09,4.31,2.67,5.81,4.72,1.5,2.06,2.59,4.54,3.28,7.45.69,2.91,1.04,6.19,1.04,9.83v12.23h-13.08v-11.37c0-4.38-.37-7.6-1.11-9.68s-2.22-3.11-4.45-3.11c-2.46,0-4.1,1.12-4.93,3.36-.83,2.24-1.24,5.36-1.24,9.37v41.53c0,3.1.18,5.63.53,7.6.35,1.97.95,3.42,1.79,4.34.84.93,2.02,1.39,3.54,1.39,2.29,0,3.84-1.08,4.65-3.23.81-2.16,1.21-5.57,1.21-10.26v-12.73h13.29v12.58c0,5.63-.66,10.32-1.97,14.07-1.31,3.76-3.39,6.56-6.24,8.41-2.85,1.85-6.54,2.78-11.09,2.78Z" fill="#111319"/><path d="M497.72,374.8c-4.62,0-8.38-.98-11.29-2.93-2.91-1.95-5.06-4.85-6.44-8.69s-2.07-8.59-2.07-14.25v-40.67c0-5.12.67-9.5,2.02-13.14,1.35-3.64,3.49-6.43,6.42-8.39,2.93-1.95,6.77-2.93,11.52-2.93,3.57,0,6.58.56,9.04,1.67,2.46,1.11,4.45,2.72,5.96,4.83,1.52,2.1,2.62,4.67,3.31,7.68.69,3.02,1.04,6.44,1.04,10.28v40.67c0,5.66-.67,10.41-2,14.25-1.33,3.84-3.43,6.74-6.29,8.69-2.86,1.95-6.6,2.93-11.22,2.93ZM497.72,363.08c1.68,0,2.95-.51,3.79-1.52.84-1.01,1.41-2.55,1.69-4.62s.43-4.69.43-7.86v-41.43c0-3.87-.36-6.86-1.09-8.97-.72-2.1-2.28-3.16-4.67-3.16s-4.13,1.02-5,3.06c-.88,2.04-1.31,5.04-1.31,9.02v41.48c0,3.23.14,5.89.43,7.96.29,2.07.88,3.6,1.77,4.57.89.98,2.21,1.47,3.97,1.47Z" fill="#111319"/><path d="M522.17,373.79l12.68-88.92h17.89l13.49,88.92h-12.63l-2.12-15.86h-14.35l-1.92,15.86h-13.04ZM538.44,347.06h11.62l-5.96-44.66h-.2l-5.46,44.66Z" fill="#111319"/><path d="M572.2,373.79v-88.92h13.54v77.4h17.13v11.52h-30.67Z" fill="#111319"/><path d="M608.42,373.79v-88.92h13.54v88.92h-13.54Z" fill="#111319"/><path d="M638.13,373.79v-77.2h-10.41v-11.72h33.9v11.72h-10v77.2h-13.49Z" fill="#111319"/><path d="M667.44,373.79v-88.92h13.54v88.92h-13.54Z" fill="#111319"/><path d="M711.2,374.8c-4.62,0-8.38-.98-11.29-2.93-2.91-1.95-5.06-4.85-6.44-8.69s-2.07-8.59-2.07-14.25v-40.67c0-5.12.67-9.5,2.02-13.14,1.35-3.64,3.49-6.43,6.42-8.39,2.93-1.95,6.77-2.93,11.52-2.93,3.57,0,6.58.56,9.04,1.67,2.46,1.11,4.45,2.72,5.96,4.83,1.52,2.1,2.62,4.67,3.31,7.68.69,3.02,1.04,6.44,1.04,10.28v40.67c0,5.66-.67,10.41-2,14.25-1.33,3.84-3.43,6.74-6.29,8.69-2.86,1.95-6.6,2.93-11.22,2.93ZM711.2,363.08c1.68,0,2.95-.51,3.79-1.52.84-1.01,1.41-2.55,1.69-4.62s.43-4.69.43-7.86v-41.43c0-3.87-.36-6.86-1.09-8.97-.72-2.1-2.28-3.16-4.67-3.16s-4.13,1.02-5,3.06c-.88,2.04-1.31,5.04-1.31,9.02v41.48c0,3.23.14,5.89.43,7.96.29,2.07.88,3.6,1.77,4.57.89.98,2.21,1.47,3.97,1.47Z" fill="#111319"/><path d="M740.91,373.79v-88.92h10.61l18.84,53.35-.96-24.25v-29.1h12.18v88.92h-9.6l-19.35-55.22.76,23.34v31.88h-12.48Z" fill="#111319"/><path d="M257.94,382.07c-45.5,0-88.21-20.24-117.19-55.54-28.92-35.23-40.33-81.48-31.32-126.91,5.87-29.56,20.43-56.41,42.12-77.64,21.66-21.21,48.81-35.23,78.51-40.56,9.25-1.66,18.63-2.5,27.87-2.5,31.19,0,61.16,9.45,86.68,27.32,24.18,16.94,42.79,40.27,53.82,67.48h-17.52c-22.17-47.82-70.42-78.72-122.98-78.72-74.71,0-135.49,60.78-135.49,135.49s60.78,135.49,135.49,135.49c52.56,0,100.81-30.9,122.98-78.72h17.52c-11.03,27.22-29.63,50.55-53.82,67.48-25.52,17.87-55.49,27.32-86.68,27.32Z" fill="#111319"/><path d="M196.4,300.15v-159.21c0-.36.29-.66.66-.66h113.99v14.85h-99.06v59.38h88.24v15.1h-88.24v70.54h-15.59Z" fill="#111319"/><path d="M232.9,337.7v-84.99c0-.36.29-.66.66-.66h103.17v15.1h-88.24v70.54h-15.58Z" fill="#111319"/><path d="M324.36,196.13c-1.46,0-2.64-1.36-2.64-3.04v-15.99c0-1.67,1.19-3.04,2.64-3.04h8.92c1.46,0,2.64,1.36,2.64,3.04v15.99c0,1.67-1.19,3.04-2.64,3.04h-8.92Z" fill="#111319"/><path d="M293.01,196.13c-1.46,0-2.64-1.36-2.64-3.04v-15.99c0-1.67,1.19-3.04,2.64-3.04h8.92c1.46,0,2.64,1.36,2.64,3.04v15.99c0,1.67-1.19,3.04-2.64,3.04h-8.92Z" fill="#111319"/><path d="M261.66,196.13c-1.46,0-2.64-1.36-2.64-3.04v-15.99c0-1.67,1.19-3.04,2.64-3.04h8.92c1.46,0,2.64,1.36,2.64,3.04v15.99c0,1.67-1.19,3.04-2.64,3.04h-8.92Z" fill="#111319"/><path d="M230.32,196.13c-1.46,0-2.64-1.36-2.64-3.04v-15.99c0-1.67,1.19-3.04,2.64-3.04h8.92c1.46,0,2.64,1.36,2.64,3.04v15.99c0,1.67-1.19,3.04-2.64,3.04h-8.92Z" fill="#111319"/></svg>